<svg width="200" height="200" viewBox="0 0 200 200" xmlns="http://www.w3.org/2000/svg">
  <defs>
    <linearGradient id="bg3" x1="0%" y1="0%" x2="100%" y2="100%">
      <stop offset="0%" style="stop-color:#00C9FF;stop-opacity:1" />
      <stop offset="100%" style="stop-color:#92FE9D;stop-opacity:1" />
    </linearGradient>
    <linearGradient id="face3" x1="0%" y1="0%" x2="100%" y2="100%">
      <stop offset="0%" style="stop-color:#D2B48C;stop-opacity:1" />
      <stop offset="100%" style="stop-color:#F4A460;stop-opacity:1" />
    </linearGradient>
  </defs>
  
  <!-- Background -->
  <rect width="200" height="200" fill="url(#bg3)" rx="20"/>
  
  <!-- Face -->
  <circle cx="100" cy="80" r="35" fill="url(#face3)" stroke="#CD853F" stroke-width="2"/>
  
  <!-- Eyes -->
  <circle cx="90" cy="75" r="3" fill="#2C3E50"/>
  <circle cx="110" cy="75" r="3" fill="#2C3E50"/>
  
  <!-- Nose -->
  <ellipse cx="100" cy="82" rx="1.5" ry="2" fill="#CD853F"/>
  
  <!-- Mouth -->
  <path d="M 95 88 Q 100 92 105 88" stroke="#2C3E50" stroke-width="1.5" fill="none"/>
  
  <!-- Hair (curly) -->
  <circle cx="85" cy="55" r="8" fill="#654321"/>
  <circle cx="100" cy="50" r="10" fill="#654321"/>
  <circle cx="115" cy="55" r="8" fill="#654321"/>
  <circle cx="75" cy="65" r="6" fill="#654321"/>
  <circle cx="125" cy="65" r="6" fill="#654321"/>
  
  <!-- Body/Shirt -->
  <rect x="60" y="115" width="80" height="85" fill="#27AE60" rx="10"/>
  <rect x="70" y="125" width="60" height="70" fill="#2ECC71" rx="5"/>
  
  <!-- Collar -->
  <polygon points="90,115 110,115 105,130 95,130" fill="#FFFFFF"/>
</svg>