<svg width="200" height="200" viewBox="0 0 200 200" xmlns="http://www.w3.org/2000/svg">
  <defs>
    <linearGradient id="bg2" x1="0%" y1="0%" x2="100%" y2="100%">
      <stop offset="0%" style="stop-color:#8A2BE2;stop-opacity:1" />
      <stop offset="100%" style="stop-color:#FF6B6B;stop-opacity:1" />
    </linearGradient>
    <linearGradient id="face2" x1="0%" y1="0%" x2="100%" y2="100%">
      <stop offset="0%" style="stop-color:#FDBCB4;stop-opacity:1" />
      <stop offset="100%" style="stop-color:#F8BBD9;stop-opacity:1" />
    </linearGradient>
  </defs>
  
  <!-- Background -->
  <rect width="200" height="200" fill="url(#bg2)" rx="20"/>
  
  <!-- Face -->
  <circle cx="100" cy="80" r="35" fill="url(#face2)" stroke="#E6A8D0" stroke-width="2"/>
  
  <!-- Eyes -->
  <circle cx="90" cy="75" r="3" fill="#2C3E50"/>
  <circle cx="110" cy="75" r="3" fill="#2C3E50"/>
  
  <!-- Nose -->
  <ellipse cx="100" cy="82" rx="1.5" ry="2" fill="#E6A8D0"/>
  
  <!-- Mouth -->
  <path d="M 95 88 Q 100 92 105 88" stroke="#2C3E50" stroke-width="1.5" fill="none"/>
  
  <!-- Hair (longer) -->
  <path d="M 65 55 Q 100 40 135 55 Q 130 45 100 43 Q 70 45 65 55" fill="#4A4A4A"/>
  <path d="M 65 55 Q 60 70 65 85 Q 70 75 75 65" fill="#4A4A4A"/>
  <path d="M 135 55 Q 140 70 135 85 Q 130 75 125 65" fill="#4A4A4A"/>
  
  <!-- Body/Shirt -->
  <rect x="60" y="115" width="80" height="85" fill="#E74C3C" rx="10"/>
  <rect x="70" y="125" width="60" height="70" fill="#F39C12" rx="5"/>
  
  <!-- Collar -->
  <polygon points="90,115 110,115 105,130 95,130" fill="#FFFFFF"/>
</svg>