<svg width="200" height="200" viewBox="0 0 200 200" xmlns="http://www.w3.org/2000/svg">
  <defs>
    <linearGradient id="bg4" x1="0%" y1="0%" x2="100%" y2="100%">
      <stop offset="0%" style="stop-color:#FF9A9E;stop-opacity:1" />
      <stop offset="100%" style="stop-color:#FECFEF;stop-opacity:1" />
    </linearGradient>
    <linearGradient id="face4" x1="0%" y1="0%" x2="100%" y2="100%">
      <stop offset="0%" style="stop-color:#FFDBAC;stop-opacity:1" />
      <stop offset="100%" style="stop-color:#F5C6A0;stop-opacity:1" />
    </linearGradient>
  </defs>
  
  <!-- Background -->
  <rect width="200" height="200" fill="url(#bg4)" rx="20"/>
  
  <!-- Face -->
  <circle cx="100" cy="80" r="35" fill="url(#face4)" stroke="#E6B887" stroke-width="2"/>
  
  <!-- Eyes -->
  <circle cx="90" cy="75" r="3" fill="#2C3E50"/>
  <circle cx="110" cy="75" r="3" fill="#2C3E50"/>
  
  <!-- Nose -->
  <ellipse cx="100" cy="82" rx="1.5" ry="2" fill="#E6B887"/>
  
  <!-- Mouth -->
  <path d="M 95 88 Q 100 92 105 88" stroke="#2C3E50" stroke-width="1.5" fill="none"/>
  
  <!-- Hair (short and neat) -->
  <path d="M 72 58 Q 100 42 128 58 Q 125 48 100 46 Q 75 48 72 58" fill="#2F1B14"/>
  
  <!-- Body/Shirt -->
  <rect x="60" y="115" width="80" height="85" fill="#9B59B6" rx="10"/>
  <rect x="70" y="125" width="60" height="70" fill="#8E44AD" rx="5"/>
  
  <!-- Collar -->
  <polygon points="90,115 110,115 105,130 95,130" fill="#FFFFFF"/>
</svg>