<svg width="200" height="200" viewBox="0 0 200 200" xmlns="http://www.w3.org/2000/svg">
  <defs>
    <linearGradient id="bg1" x1="0%" y1="0%" x2="100%" y2="100%">
      <stop offset="0%" style="stop-color:#00AEEF;stop-opacity:1" />
      <stop offset="100%" style="stop-color:#395BFF;stop-opacity:1" />
    </linearGradient>
    <linearGradient id="face1" x1="0%" y1="0%" x2="100%" y2="100%">
      <stop offset="0%" style="stop-color:#FFE4C4;stop-opacity:1" />
      <stop offset="100%" style="stop-color:#F5DEB3;stop-opacity:1" />
    </linearGradient>
  </defs>
  
  <!-- Background -->
  <rect width="200" height="200" fill="url(#bg1)" rx="20"/>
  
  <!-- Face -->
  <circle cx="100" cy="80" r="35" fill="url(#face1)" stroke="#E6D3A3" stroke-width="2"/>
  
  <!-- Eyes -->
  <circle cx="90" cy="75" r="3" fill="#2C3E50"/>
  <circle cx="110" cy="75" r="3" fill="#2C3E50"/>
  
  <!-- Nose -->
  <ellipse cx="100" cy="82" rx="1.5" ry="2" fill="#D4AF8C"/>
  
  <!-- Mouth -->
  <path d="M 95 88 Q 100 92 105 88" stroke="#2C3E50" stroke-width="1.5" fill="none"/>
  
  <!-- Hair -->
  <path d="M 70 60 Q 100 45 130 60 Q 125 50 100 48 Q 75 50 70 60" fill="#8B4513"/>
  
  <!-- Body/Shirt -->
  <rect x="60" y="115" width="80" height="85" fill="#2C3E50" rx="10"/>
  <rect x="70" y="125" width="60" height="70" fill="#3498DB" rx="5"/>
  
  <!-- Collar -->
  <polygon points="90,115 110,115 105,130 95,130" fill="#FFFFFF"/>
</svg>