<?xml version="1.0" encoding="UTF-8"?>
<svg xmlns="http://www.w3.org/2000/svg" width="1600" height="1000" viewBox="0 0 1600 1000">
  <defs>
    <linearGradient id="waveGrad" x1="0" y1="0" x2="1" y2="0">
      <stop offset="0%" stop-color="#00AEEF" stop-opacity="0.08"/>
      <stop offset="50%" stop-color="#FFC107" stop-opacity="0.08"/>
      <stop offset="100%" stop-color="#F29900" stop-opacity="0.08"/>
    </linearGradient>
    <radialGradient id="dotGrad" cx="50%" cy="50%" r="0.9">
      <stop offset="0%" stop-color="#00AEEF" stop-opacity="0.10"/>
      <stop offset="100%" stop-color="#00AEEF" stop-opacity="0"/>
    </radialGradient>
  </defs>

  <!-- Soft blobs -->
  <g>
    <circle cx="180" cy="160" r="120" fill="#00AEEF" opacity="0.06"/>
    <circle cx="1320" cy="200" r="140" fill="#FFC107" opacity="0.06"/>
    <circle cx="900" cy="780" r="160" fill="#F29900" opacity="0.05"/>
    <circle cx="320" cy="780" r="110" fill="#00AEEF" opacity="0.05"/>
  </g>

  <!-- Wavy path -->
  <path d="M0,600 C200,560 280,640 480,620 C680,600 760,660 960,640 C1160,620 1240,700 1440,680 C1540,670 1600,660 1600,660"
        fill="none" stroke="url(#waveGrad)" stroke-width="28" opacity="0.25"/>

  <!-- Light dotted arcs -->
  <g opacity="0.30" fill="none" stroke="#00AEEF" stroke-width="2" stroke-linecap="round">
    <path d="M200 320 q 80 -40 160 0 q 80 40 160 0" stroke-dasharray="2 10" opacity="0.25"/>
    <path d="M1080 320 q 80 -40 160 0 q 80 40 160 0" stroke-dasharray="2 10" opacity="0.20"/>
  </g>

  <!-- Gentle dot clusters -->
  <g opacity="0.35">
    <circle cx="1180" cy="520" r="80" fill="url(#dotGrad)"/>
    <circle cx="420" cy="420" r="70" fill="url(#dotGrad)"/>
  </g>
</svg>